<svg width="1024" height="1024" viewBox="0 0 1024 1024" fill="none" xmlns="http://www.w3.org/2000/svg">
<style>
  @media (prefers-color-scheme: dark) {
    .icon-path { fill: #FFFFFF; }
  }
</style>
<path class="icon-path" fill-rule="evenodd" clip-rule="evenodd" d="M383.376 610.288C415.445 631.306 448.403 650.92 482.299 668.746C503.03 679.648 525.178 679.433 546.045 667.445C575.363 650.601 604.642 633.671 633.564 616.16C655.374 602.955 664.945 582.562 664.958 557.405C664.976 526.201 665.2 494.995 664.848 463.794C664.588 440.857 655.293 421.612 635.912 409.386C605.415 390.149 574.221 371.967 542.807 354.251C523.428 343.323 502.309 343.882 483.198 354.076C452.059 370.686 421.603 388.671 391.574 407.234C369.873 420.649 359.514 441.499 359.35 467.022C359.154 497.473 359.076 527.929 359.439 558.377C359.679 578.424 366.986 595.681 383.376 610.288ZM452.874 788.024C489.554 756.986 552.81 760.155 584.926 799.482C605.587 824.784 625.796 850.661 650.173 872.7C690.026 908.731 735.606 927.68 790.346 920.003C863.723 909.712 922.402 842.437 922.466 768.178C922.508 719.527 905.401 677.924 871.189 643.421C865.935 638.123 864.032 632.93 865.858 625.299C870.316 606.667 874.168 587.773 872.929 568.473C872.182 556.839 876.511 549.209 886.737 543.963C893.451 540.518 899.179 536.041 901.044 527.64C906.527 502.934 900.836 488.602 879.607 475.691C878 474.714 876.385 473.749 874.749 472.823C859.829 464.377 826.257 474.845 820.853 491.162C816.491 504.329 816.611 518.822 820.105 532.433C822.34 541.14 831.684 543.706 838.694 547.775C844.599 551.203 847.04 555.611 847.008 562.406C846.738 619.112 828.977 669.34 792.184 712.724C788.652 716.888 785.474 717.41 780.478 715.434C745.014 701.41 706.957 728.837 712.396 766.236C714.891 783.397 708.146 791.445 695.598 798.658C691.36 801.094 687.031 803.422 683.029 806.209C675.68 811.325 670.002 810.677 663.538 803.811C651.894 791.444 642.322 777.44 631.116 764.778C600.855 730.584 564.079 709.782 517.269 709.036C452.301 708.001 409.211 743.659 374.241 793.326C370.533 798.592 371.993 802.221 377.24 805.268C388.417 811.759 400.403 815.974 413.041 818.425C419.481 819.673 424.587 817.772 429.078 812.7C436.294 804.547 444.069 796.89 452.874 788.024ZM787.172 158.344C807.616 162.915 824.761 173.187 839.184 188.258C868.729 219.131 875.492 280.134 848.304 319.303C825.647 351.944 796.482 377.313 764.654 400.574C715.272 436.665 695.766 495.476 711.535 552.459C722.943 593.68 750.59 621.956 783.65 646.199C802.847 660.275 804.404 659.641 813.196 637.176C825.332 606.168 825.332 606.168 798.924 585.472C749.427 546.683 750.706 478.381 802.066 442.481C825.951 425.786 847.791 406.879 867.31 385.409C893.146 356.991 913.567 325.801 920.614 286.693C932.998 217.961 900.421 148.876 838.366 115.718C776.56 82.6933 683.538 98.4151 633.911 150.508C627.715 157.012 621.975 162.974 611.856 160.472C595.366 156.394 578.393 155.75 561.6 153.863C557.666 153.421 554.47 152.875 552.72 148.507C545.751 131.111 528.608 127.554 513.925 120.86C512.071 120.015 508.831 121.523 506.489 122.535C475.31 136.007 469.761 145.375 472.064 179.383C472.394 184.255 473.93 188.215 477.583 191.219C486.932 198.909 497.427 204.754 508.385 209.795C511.235 211.106 514.346 211.448 517.137 209.969C528.733 203.822 541.6 199.102 550.157 188.884C555.27 182.78 560.439 181.313 567.587 181.505C619.954 182.911 665.403 202.708 706.85 233.377C712.698 237.704 713.867 242.659 712.471 249.997C707.355 276.894 718.733 295.82 746.084 307.802C765.533 316.323 789.798 309.291 804.286 290.936C816.553 275.397 816.937 246.888 805.103 230.426C792.27 212.575 767.083 204.842 746.857 212.434C741.01 214.629 734.968 219.609 728.733 215.676C714.205 206.511 700.209 196.503 684.656 185.924C714.9 159.913 748.148 151.959 787.172 158.344ZM532.042 894.313C555.345 885.729 554.533 866.155 553.503 846.686C553.199 840.943 550.899 835.744 545.895 832.17C537.616 826.258 529.071 820.808 519.783 816.59C515.846 814.802 511.677 814.202 507.69 815.717C495.973 820.168 484.039 825.579 477.096 835.953C471.869 843.762 466.248 845.016 458.359 844.602C409.373 842.031 365.106 826.595 325.235 797.725C314.045 789.622 309.139 782.224 311.768 767.269C316.585 739.869 287.731 708.44 261.25 709.401C244.657 710.002 219.865 727.23 214.206 742.091C206.838 761.436 210.827 786.404 224.181 797.764C241.553 812.541 260.551 820.812 282.941 807.917C286.689 805.758 290.328 804.409 294.416 807.489C306.34 816.475 318.376 825.31 331.415 834.98C312.094 854.011 289.411 864.149 263.524 864.536C224.316 865.121 193.174 847.662 173.368 814.236C153.361 780.472 154.775 745.161 175.064 711.379C195.594 677.195 224.743 651.307 256.899 628.441C322.812 581.572 338.118 491.005 290.915 425.389C274.481 402.544 252.275 385.477 230.245 368.423C224.113 363.676 219.693 366.886 216.579 372.609C210.221 384.295 206.918 396.926 204.474 409.964C203.018 417.734 205.141 423.111 211.231 427.548C220.672 434.427 229.61 441.891 237.704 450.353C273.159 487.416 269.392 546.65 229.807 575.737C221.626 581.748 213.652 588.041 205.607 594.237C176.803 616.419 151.137 641.521 131.533 672.472C89.5663 738.728 91.6777 810.112 139.281 865.89C175.754 908.625 222.928 926.815 279.052 920.342C320.035 915.615 353.561 895.971 382.606 867.665C386.787 863.59 390.806 860.622 397.495 862.388C417.915 867.779 438.789 870.363 459.916 870.733C465.898 870.837 469.939 872.714 473.528 878.453C486.972 899.951 511.88 906.857 532.042 894.313ZM348.904 160.039C350.637 159.308 352.466 158.745 354.084 157.814C358.764 155.12 366.663 155.537 367.32 148.992C367.947 142.745 361.071 140.208 356.602 137.005C326.64 115.525 293.448 105.35 256.309 105.284C171.065 105.132 102.488 172.707 102.272 260.814C102.159 306.796 120.044 346.52 152.537 379.167C158.884 385.544 160.823 391.306 158.613 400.136C154.23 417.652 151.925 435.748 151.932 453.711C151.938 466.857 149.003 476.027 136.458 481.683C131.239 484.036 125.916 487.475 124.548 494.333C118.775 523.278 124.141 535.496 149.592 550.625C165.603 560.143 197.827 548.694 204.642 531.065C212.327 511.186 206.157 489.786 188.625 478.078C181.582 473.374 178.277 467.852 179.006 459.374C180.196 445.523 179.764 431.441 182.036 417.792C188.562 378.577 202.845 342.582 229.252 312.091C233.506 307.18 237.593 306.264 244.006 308.445C279.591 320.545 316.105 293.591 311.781 256.12C309.845 239.333 316.66 233.085 328.368 226.75C332.332 224.605 336.27 222.322 339.893 219.657C349.877 212.314 357.843 214.923 365.083 223.929C373.802 234.775 382.908 245.308 391.641 256.142C454.905 334.632 580.007 345.688 650.212 225.293C649.24 224.756 647.91 224.002 646.563 223.281C642.255 220.979 638.029 218.502 633.614 216.426C605.658 203.28 601.916 204.01 581.006 226.214C579.459 227.856 577.835 229.427 576.213 230.996C539.724 266.302 483.752 266.292 446.923 231.274C430.963 216.099 417.714 198.893 406.612 179.995C401.531 171.346 395.655 168.731 385.246 171.651C354.663 180.228 327.685 195.57 302.009 213.53C295.093 218.368 289.253 219.823 281.39 215.718C269.25 209.379 256.625 207.876 243.448 214.005C215.868 226.831 206.379 245.236 212.627 275.078C213.389 278.716 215.988 282.571 214.202 286.045C206.537 300.956 195.459 313.438 185.448 328.412C169.124 310.031 161.479 289.985 159.799 268.522C154.272 197.91 219.183 144.518 286.596 166.297C309.66 173.749 328.114 174.081 348.904 160.039ZM598.934 981.58C617.147 963.106 635.167 944.433 653.675 926.259C660.552 919.506 659.936 914.713 652.747 908.94C644.555 902.361 636.456 895.528 629.201 887.957C621.48 879.9 615.293 880.086 607.534 887.964C588.54 907.251 569.099 926.101 549.698 944.983C542.355 952.13 534.053 957.471 523.702 959.955C501.862 965.197 485.775 955.53 471.282 941.109C456.096 925.998 441.171 910.625 425.913 895.588C412.12 881.995 405.355 881.952 391.53 894.254C385.637 899.499 379.615 904.643 373.295 909.355C365.969 914.818 365.04 919.645 372.016 926.568C392.832 947.225 412.94 968.595 433.757 989.25C457.536 1012.84 485.908 1026 519.999 1023.75C551.874 1021.65 576.644 1005.43 598.934 981.58ZM49.6991 416.542C45.3872 420.74 40.9915 424.857 36.7764 429.151C-6.44043 473.178 -11.1828 539.067 27.8767 584.733C49.3158 609.798 74.3957 631.744 97.7393 655.19C103.086 660.561 107.156 659.62 111.489 653.88C118.961 643.978 126.341 633.943 134.603 624.72C142.08 616.373 140.871 609.932 133.254 602.684C115.278 585.577 98.1482 567.551 79.735 550.94C58.4816 531.767 54.2446 495.983 78.3436 474C94.4454 459.313 109.631 443.612 125.057 428.196C136.1 417.16 137.311 405.539 128.785 392.772C124.197 385.902 119.302 379.206 114.133 372.762C104.887 361.237 104.73 361.315 94.623 371.437C80.0053 386.076 65.4305 400.758 49.6991 416.542ZM891.909 398.248C882.232 409.84 881.962 410.418 892.877 421.326C910.169 438.607 927.896 455.451 945.411 472.51C968.555 495.052 968.812 526.639 945.961 549.579C929.231 566.374 912.44 583.11 895.554 599.748C887.715 607.471 886.501 617.057 891.722 625.462C899.588 638.126 909.844 649.214 921.097 659.481C923.444 657.975 925.23 657.225 926.495 655.957C948.816 633.598 972.071 612.071 993.132 588.578C1034.82 542.078 1032.1 474.748 991.286 432.935C970.267 411.404 948.611 390.495 927.407 369.142C922.009 363.707 917.921 364.546 913.621 370.267C906.842 379.286 899.854 388.146 891.909 398.248ZM547.446 73.5263C564.492 89.9624 581.758 106.178 598.486 122.932C606.322 130.78 613.586 131.609 622.13 124.585C629.095 118.858 636.24 113.331 643.521 108.011C655.39 99.338 655.745 97.9766 645.445 87.5842C626.926 68.8981 608.426 50.1822 589.519 31.8922C548.194 -8.08249 487.971 -10.9223 443.994 25.886C416.583 48.8284 392.694 75.519 368.423 101.731C363.385 107.172 364.804 111.024 369.748 114.706C377.28 120.316 384.958 125.736 392.684 131.078C407.935 141.621 408.541 141.621 422.001 128.43C439.993 110.798 457.603 92.7711 475.795 75.349C498.658 53.4528 521.43 52.7319 547.446 73.5263ZM711.659 847.956C710.016 846.891 709.052 846.303 708.131 845.655C692.511 834.659 692.517 833.532 708.214 822.905C709.771 821.852 711.466 820.945 712.839 819.689C724.799 808.743 735.983 804.484 753.563 811.673C778.563 821.898 810.239 798.296 812.23 771.383C812.672 765.415 813.652 758.876 811.821 753.469C806.881 738.885 812.808 728.254 821.79 717.861C825.943 713.055 829.144 707.435 832.896 702.27C837.665 695.702 842.194 695.647 846.763 702.694C886.687 764.261 859.801 846.695 783.501 862.74C757.583 868.19 734.478 861.085 711.659 847.956Z" fill="#212225"/>
</svg>
