<svg width="1024" height="1024" viewBox="0 0 1024 1024" fill="none" xmlns="http://www.w3.org/2000/svg">
<path fill-rule="evenodd" clip-rule="evenodd" d="M383.115 610.288C415.184 631.306 448.142 650.92 482.037 668.746C502.769 679.648 524.916 679.433 545.783 667.445C575.102 650.601 604.381 633.671 633.303 616.16C655.113 602.955 664.683 582.562 664.697 557.405C664.714 526.201 664.939 494.995 664.586 463.794C664.327 440.857 655.032 421.612 635.651 409.386C605.153 390.149 573.959 371.967 542.545 354.251C523.167 343.323 502.048 343.882 482.937 354.076C451.798 370.686 421.341 388.671 391.313 407.234C369.612 420.649 359.252 441.499 359.089 467.022C358.893 497.473 358.815 527.929 359.178 558.377C359.418 578.424 366.725 595.681 383.115 610.288ZM452.613 788.024C489.293 756.986 552.549 760.155 584.664 799.482C605.326 824.784 625.535 850.661 649.912 872.7C689.764 908.731 735.345 927.68 790.085 920.003C863.462 909.712 922.141 842.437 922.205 768.178C922.247 719.527 905.14 677.924 870.927 643.421C865.674 638.123 863.771 632.93 865.596 625.299C870.055 606.667 873.907 587.773 872.668 568.473C871.921 556.839 876.249 549.209 886.476 543.963C893.19 540.518 898.918 536.041 900.782 527.64C906.266 502.934 900.575 488.602 879.346 475.691C877.739 474.714 876.124 473.749 874.488 472.823C859.568 464.377 825.996 474.845 820.591 491.162C816.23 504.329 816.35 518.822 819.844 532.433C822.079 541.14 831.423 543.706 838.433 547.775C844.338 551.203 846.779 555.611 846.747 562.406C846.477 619.112 828.716 669.34 791.923 712.724C788.391 716.888 785.212 717.41 780.216 715.434C744.753 701.41 706.696 728.837 712.134 766.236C714.63 783.397 707.885 791.445 695.337 798.658C691.099 801.094 686.77 803.422 682.768 806.209C675.419 811.325 669.741 810.677 663.277 803.811C651.633 791.444 642.061 777.44 630.855 764.778C600.594 730.584 563.818 709.782 517.008 709.036C452.04 708.001 408.95 743.659 373.979 793.326C370.272 798.592 371.732 802.221 376.979 805.268C388.156 811.759 400.141 815.974 412.78 818.425C419.219 819.673 424.326 817.772 428.817 812.7C436.033 804.547 443.808 796.89 452.613 788.024ZM786.911 158.344C807.355 162.915 824.5 173.187 838.923 188.258C868.468 219.131 875.231 280.134 848.043 319.303C825.385 351.944 796.221 377.313 764.393 400.574C715.011 436.665 695.504 495.476 711.274 552.459C722.682 593.68 750.329 621.956 783.389 646.199C802.585 660.275 804.143 659.641 812.935 637.176C825.071 606.168 825.071 606.168 798.662 585.472C749.166 546.683 750.444 478.381 801.805 442.481C825.69 425.786 847.53 406.879 867.049 385.409C892.885 356.991 913.306 325.801 920.352 286.693C932.736 217.961 900.16 148.876 838.105 115.718C776.298 82.6933 683.277 98.4151 633.65 150.508C627.454 157.012 621.714 162.974 611.595 160.472C595.104 156.394 578.132 155.75 561.339 153.863C557.405 153.421 554.208 152.875 552.459 148.507C545.489 131.111 528.346 127.554 513.664 120.86C511.81 120.015 508.57 121.523 506.228 122.535C475.048 136.007 469.5 145.375 471.803 179.383C472.133 184.255 473.669 188.215 477.321 191.219C486.67 198.909 497.166 204.754 508.124 209.795C510.973 211.106 514.085 211.448 516.876 209.969C528.472 203.822 541.338 199.102 549.896 188.884C555.009 182.78 560.178 181.313 567.326 181.505C619.693 182.911 665.142 202.708 706.589 233.377C712.437 237.704 713.606 242.659 712.21 249.997C707.093 276.894 718.472 295.82 745.823 307.802C765.272 316.323 789.536 309.291 804.025 290.936C816.291 275.397 816.676 246.888 804.842 230.426C792.009 212.575 766.822 204.842 746.596 212.434C740.749 214.629 734.707 219.609 728.472 215.676C713.944 206.511 699.948 196.503 684.394 185.924C714.639 159.913 747.886 151.959 786.911 158.344ZM531.781 894.313C555.084 885.729 554.271 866.155 553.242 846.686C552.938 840.943 550.638 835.744 545.634 832.17C537.355 826.258 528.81 820.808 519.522 816.59C515.585 814.802 511.416 814.202 507.429 815.717C495.712 820.168 483.778 825.579 476.835 835.953C471.608 843.762 465.987 845.016 458.098 844.602C409.111 842.031 364.844 826.595 324.974 797.725C313.783 789.622 308.877 782.224 311.506 767.269C316.324 739.869 287.47 708.44 260.989 709.401C244.396 710.002 219.604 727.23 213.944 742.091C206.577 761.436 210.566 786.404 223.92 797.764C241.292 812.541 260.29 820.812 282.68 807.917C286.428 805.758 290.066 804.409 294.155 807.489C306.078 816.475 318.115 825.31 331.154 834.98C311.833 854.011 289.15 864.149 263.262 864.536C224.054 865.121 192.913 847.662 173.107 814.236C153.1 780.472 154.514 745.161 174.803 711.379C195.333 677.195 224.482 651.307 256.638 628.441C322.551 581.572 337.856 491.005 290.654 425.389C274.219 402.544 252.014 385.477 229.984 368.423C223.852 363.676 219.431 366.886 216.318 372.609C209.96 384.295 206.657 396.926 204.213 409.964C202.757 417.734 204.88 423.111 210.97 427.548C220.41 434.427 229.348 441.891 237.443 450.353C272.898 487.416 269.131 546.65 229.546 575.737C221.365 581.748 213.391 588.041 205.346 594.237C176.542 616.419 150.876 641.521 131.272 672.472C89.3051 738.728 91.4165 810.112 139.02 865.89C175.493 908.625 222.666 926.815 278.791 920.342C319.774 915.615 353.3 895.971 382.345 867.665C386.526 863.59 390.545 860.622 397.234 862.388C417.654 867.779 438.527 870.363 459.655 870.733C465.636 870.837 469.678 872.714 473.266 878.453C486.711 899.951 511.619 906.857 531.781 894.313ZM348.643 160.039C350.376 159.308 352.205 158.745 353.823 157.814C358.503 155.12 366.402 155.537 367.059 148.992C367.685 142.745 360.81 140.208 356.341 137.005C326.379 115.525 293.187 105.35 256.048 105.284C170.803 105.132 102.227 172.707 102.011 260.814C101.898 306.796 119.783 346.52 152.276 379.167C158.622 385.544 160.561 391.306 158.352 400.136C153.969 417.652 151.663 435.748 151.671 453.711C151.677 466.857 148.742 476.027 136.197 481.683C130.977 484.036 125.655 487.475 124.287 494.333C118.514 523.278 123.879 535.496 149.33 550.625C165.342 560.143 197.566 548.694 204.381 531.065C212.066 511.186 205.895 489.786 188.364 478.078C181.321 473.374 178.016 467.852 178.745 459.374C179.935 445.523 179.503 431.441 181.775 417.792C188.3 378.577 202.584 342.582 228.991 312.091C233.245 307.18 237.332 306.264 243.745 308.445C279.33 320.545 315.844 293.591 311.52 256.12C309.583 239.333 316.399 233.085 328.107 226.75C332.07 224.605 336.009 222.322 339.631 219.657C349.616 212.314 357.582 214.923 364.822 223.929C373.541 234.775 382.647 245.308 391.38 256.142C454.644 334.632 579.746 345.688 649.951 225.293C648.979 224.756 647.649 224.002 646.301 223.281C641.994 220.979 637.768 218.502 633.353 216.426C605.397 203.28 601.655 204.01 580.744 226.214C579.198 227.856 577.573 229.427 575.951 230.996C539.463 266.302 483.491 266.292 446.662 231.274C430.702 216.099 417.452 198.893 406.351 179.995C401.27 171.346 395.394 168.731 384.985 171.651C354.402 180.228 327.424 195.57 301.748 213.53C294.832 218.368 288.992 219.823 281.129 215.718C268.989 209.379 256.363 207.876 243.186 214.005C215.607 226.831 206.117 245.236 212.366 275.078C213.128 278.716 215.727 282.571 213.941 286.045C206.276 300.956 195.197 313.438 185.187 328.412C168.863 310.031 161.218 289.985 159.538 268.522C154.011 197.91 218.922 144.518 286.335 166.297C309.399 173.749 327.852 174.081 348.643 160.039ZM598.673 981.58C616.886 963.106 634.905 944.433 653.414 926.259C660.291 919.506 659.675 914.713 652.486 908.94C644.294 902.361 636.195 895.528 628.94 887.957C621.219 879.9 615.032 880.086 607.273 887.964C588.279 907.251 568.838 926.101 549.437 944.983C542.094 952.13 533.792 957.471 523.441 959.955C501.6 965.197 485.514 955.53 471.021 941.109C455.835 925.998 440.909 910.625 425.651 895.588C411.858 881.995 405.093 881.952 391.269 894.254C385.376 899.499 379.353 904.643 373.034 909.355C365.708 914.818 364.778 919.645 371.755 926.568C392.57 947.225 412.679 968.595 433.496 989.25C457.275 1012.84 485.647 1026 519.737 1023.75C551.613 1021.65 576.382 1005.43 598.673 981.58ZM49.4379 416.542C45.126 420.74 40.7303 424.857 36.5152 429.151C-6.70166 473.178 -11.4441 539.067 27.6155 584.733C49.0546 609.798 74.1344 631.744 97.4781 655.19C102.825 660.561 106.895 659.62 111.228 653.88C118.7 643.978 126.08 633.943 134.342 624.72C141.819 616.373 140.61 609.932 132.993 602.684C115.016 585.577 97.8869 567.551 79.4737 550.94C58.2204 531.767 53.9834 495.983 78.0824 474C94.1841 459.313 109.37 443.612 124.796 428.196C135.839 417.16 137.05 405.539 128.523 392.772C123.935 385.902 119.041 379.206 113.872 372.762C104.626 361.237 104.469 361.315 94.3618 371.437C79.7441 386.076 65.1692 400.758 49.4379 416.542ZM891.648 398.248C881.971 409.84 881.701 410.418 892.616 421.326C909.908 438.607 927.635 455.451 945.15 472.51C968.294 495.052 968.551 526.639 945.7 549.579C928.97 566.374 912.178 583.11 895.292 599.748C887.454 607.471 886.24 617.057 891.461 625.462C899.327 638.126 909.583 649.214 920.836 659.481C923.183 657.975 924.968 657.225 926.234 655.957C948.555 633.598 971.81 612.071 992.871 588.578C1034.56 542.078 1031.84 474.748 991.025 432.935C970.006 411.404 948.35 390.495 927.146 369.142C921.748 363.707 917.66 364.546 913.36 370.267C906.581 379.286 899.592 388.146 891.648 398.248ZM547.184 73.5263C564.23 89.9624 581.497 106.178 598.225 122.932C606.061 130.78 613.324 131.609 621.869 124.585C628.834 118.858 635.979 113.331 643.26 108.011C655.129 99.338 655.483 97.9766 645.184 87.5842C626.664 68.8981 608.165 50.1822 589.258 31.8922C547.933 -8.08249 487.71 -10.9223 443.732 25.886C416.321 48.8284 392.433 75.519 368.162 101.731C363.124 107.172 364.543 111.024 369.486 114.706C377.018 120.316 384.696 125.736 392.423 131.078C407.673 141.621 408.279 141.621 421.74 128.43C439.732 110.798 457.342 92.7711 475.534 75.349C498.397 53.4528 521.168 52.7319 547.184 73.5263ZM711.398 847.956C709.755 846.891 708.791 846.303 707.869 845.655C692.25 834.659 692.256 833.532 707.953 822.905C709.51 821.852 711.204 820.945 712.577 819.689C724.538 808.743 735.722 804.484 753.301 811.673C778.301 821.898 809.978 798.296 811.969 771.383C812.411 765.415 813.391 758.876 811.56 753.469C806.62 738.885 812.547 728.254 821.528 717.861C825.682 713.055 828.883 707.435 832.634 702.27C837.404 695.702 841.932 695.647 846.502 702.694C886.425 764.261 859.54 846.695 783.24 862.74C757.322 868.19 734.216 861.085 711.398 847.956Z" fill="#5E6AD2"/>
</svg>
