<svg width="1024" height="1024" viewBox="0 0 1024 1024" fill="none" xmlns="http://www.w3.org/2000/svg">
<style>
  @media (prefers-color-scheme: dark) {
    .icon-bg { fill: #212225; }
    .icon-path { fill: #FFFFFF; }
  }
</style>
<rect class="icon-bg" width="1024" height="1024" fill="white"/>
<path class="icon-path" fill-rule="evenodd" clip-rule="evenodd" d="M415.586 585.716C439.638 601.48 464.356 616.19 489.778 629.559C505.327 637.736 521.937 637.575 537.587 628.584C559.576 615.951 581.536 603.254 603.227 590.12C619.585 580.216 626.763 564.921 626.773 546.054C626.786 522.651 626.954 499.246 626.69 475.846C626.495 458.643 619.524 444.209 604.988 435.04C582.115 420.612 558.719 406.975 535.159 393.688C520.625 385.492 504.786 385.912 490.453 393.557C467.099 406.015 444.256 419.504 421.735 433.426C405.459 443.487 397.689 459.124 397.566 478.267C397.42 501.105 397.361 523.947 397.634 546.783C397.813 561.818 403.294 574.761 415.586 585.716ZM467.71 719.018C495.219 695.74 542.662 698.116 566.748 727.612C582.244 746.588 597.401 765.995 615.684 782.525C645.573 809.548 679.759 823.76 720.814 818.002C775.846 810.284 819.855 759.828 819.904 704.134C819.935 667.645 807.105 636.443 781.445 610.566C777.505 606.592 776.078 602.697 777.447 596.975C780.791 583 783.68 568.83 782.751 554.355C782.19 545.63 785.437 539.907 793.107 535.972C798.142 533.389 802.438 530.031 803.837 523.73C807.949 505.2 803.681 494.452 787.759 484.768C786.554 484.035 785.343 483.312 784.116 482.617C772.926 476.283 747.747 484.134 743.693 496.372C740.422 506.247 740.512 517.117 743.133 527.325C744.809 533.855 751.817 535.779 757.074 538.831C761.503 541.403 763.334 544.708 763.31 549.804C763.108 592.334 749.787 630.005 722.192 662.543C719.543 665.666 717.159 666.057 713.412 664.576C686.814 654.058 658.272 674.628 662.351 702.677C664.222 715.548 659.164 721.584 649.753 726.993C646.574 728.821 643.328 730.567 640.326 732.657C634.814 736.494 630.556 736.008 625.708 730.858C616.974 721.583 609.795 711.08 601.391 701.583C578.695 675.938 551.114 660.337 516.006 659.777C467.28 659.001 434.962 685.744 408.735 722.995C405.954 726.944 407.049 729.666 410.984 731.951C419.367 736.819 428.356 739.981 437.835 741.819C442.665 742.755 446.495 741.329 449.863 737.525C455.275 731.411 461.106 725.667 467.71 719.018ZM718.433 246.758C733.766 250.186 746.625 257.89 757.442 269.194C779.601 292.348 784.673 338.101 764.282 367.477C747.289 391.958 725.415 410.985 701.545 428.43C664.508 455.499 649.878 499.607 661.706 542.344C670.261 573.26 690.997 594.467 715.792 612.649C730.189 623.206 731.357 622.73 737.951 605.882C747.053 582.626 747.053 582.626 727.247 567.104C690.124 538.012 691.083 486.786 729.604 459.861C747.518 447.34 763.898 433.159 778.537 417.057C797.913 395.743 813.23 372.351 818.514 343.02C827.802 291.471 803.37 239.657 756.829 214.789C710.474 190.02 640.708 201.811 603.487 240.881C598.84 245.759 594.536 250.23 586.946 248.354C574.578 245.296 561.849 244.813 549.254 243.398C546.304 243.066 543.906 242.656 542.594 239.38C537.367 226.333 524.51 223.665 513.498 218.645C512.107 218.011 509.677 219.142 507.921 219.901C484.536 230.006 480.375 237.031 482.102 262.537C482.35 266.191 483.502 269.161 486.241 271.415C493.253 277.182 501.125 281.566 509.343 285.346C511.48 286.329 513.814 286.586 515.907 285.477C524.604 280.866 534.254 277.326 540.672 269.663C544.507 265.085 548.383 263.985 553.744 264.129C593.02 265.183 627.106 280.031 658.192 303.033C662.578 306.278 663.455 309.995 662.408 315.498C658.57 335.67 667.104 349.865 687.617 358.852C702.204 365.242 720.402 359.969 731.269 346.202C740.469 334.547 740.757 313.166 731.881 300.82C722.256 287.431 703.367 281.632 688.197 287.326C683.812 288.972 679.28 292.706 674.604 289.757C663.708 282.883 653.211 275.377 641.546 267.443C664.229 247.935 689.165 241.969 718.433 246.758ZM527.086 798.735C544.563 792.297 543.953 777.616 543.181 763.014C542.954 758.707 541.229 754.808 537.475 752.127C531.266 747.693 524.858 743.606 517.892 740.443C514.939 739.102 511.812 738.652 508.822 739.788C500.034 743.126 491.084 747.184 485.876 754.965C481.956 760.822 477.74 761.762 471.823 761.452C435.084 759.523 401.883 747.946 371.981 726.294C363.588 720.216 359.908 714.668 361.88 703.452C365.493 682.902 343.852 659.33 323.991 660.05C311.547 660.502 292.953 673.422 288.708 684.568C283.183 699.077 286.174 717.803 296.19 726.323C309.219 737.406 323.468 743.609 340.26 733.938C343.071 732.318 345.8 731.307 348.866 733.617C357.809 740.356 366.836 746.983 376.615 754.235C362.125 768.508 345.113 776.112 325.697 776.402C296.291 776.841 272.935 763.746 258.08 738.677C243.075 713.354 244.135 686.871 259.352 661.534C274.75 635.896 296.611 616.48 320.728 599.331C370.163 564.179 381.642 496.254 346.24 447.042C333.915 429.908 317.26 417.108 300.738 404.317C296.139 400.757 292.824 403.164 290.488 407.456C285.72 416.221 283.242 425.695 281.41 435.473C280.318 441.3 281.91 445.333 286.477 448.661C293.558 453.82 300.261 459.419 306.332 465.765C332.923 493.562 330.098 537.987 300.409 559.803C294.273 564.311 288.293 569.031 282.259 573.678C260.657 590.314 241.407 609.141 226.704 632.354C195.229 682.046 196.812 735.584 232.515 777.417C259.869 809.469 295.25 823.112 337.343 818.257C368.08 814.711 393.225 799.978 415.009 778.749C418.145 775.693 421.159 773.466 426.175 774.791C441.49 778.835 457.146 780.772 472.991 781.049C477.477 781.128 480.508 782.535 483.2 786.84C493.283 802.963 511.964 808.143 527.086 798.735ZM389.732 248.029C391.032 247.481 392.404 247.059 393.617 246.36C397.127 244.34 403.051 244.653 403.544 239.744C404.014 235.059 398.857 233.156 395.506 230.754C373.034 214.644 348.14 207.013 320.286 206.963C256.353 206.849 204.92 257.53 204.758 323.61C204.674 358.097 218.087 387.89 242.457 412.375C247.217 417.158 248.671 421.479 247.014 428.102C243.726 441.239 241.998 454.811 242.003 468.283C242.008 478.142 239.806 485.02 230.398 489.262C226.483 491.027 222.491 493.606 221.465 498.75C217.135 520.459 221.16 529.622 240.248 540.969C252.257 548.108 276.425 539.52 281.536 526.299C287.3 511.39 282.672 495.339 269.523 486.559C264.241 483.031 261.762 478.889 262.308 472.531C263.201 462.142 262.877 451.58 264.581 441.344C269.475 411.932 280.188 384.937 299.993 362.069C303.184 358.385 306.249 357.698 311.059 359.334C337.748 368.409 365.133 348.193 361.89 320.09C360.437 307.5 365.549 302.814 374.33 298.062C377.303 296.454 380.257 294.741 382.974 292.743C390.462 287.235 396.436 289.192 401.867 295.947C408.405 304.081 415.235 311.981 421.785 320.107C469.233 378.974 563.059 387.266 615.713 296.97C614.984 296.567 613.987 296.001 612.976 295.461C609.745 293.734 606.576 291.876 603.265 290.319C582.297 280.46 579.491 281.007 563.808 297.661C562.648 298.892 561.43 300.07 560.214 301.247C532.847 327.726 490.868 327.719 463.247 301.456C451.277 290.075 441.339 277.17 433.013 262.997C429.202 256.509 424.796 254.548 416.988 256.738C394.051 263.171 373.818 274.677 354.561 288.148C349.374 291.776 344.994 292.867 339.097 289.788C329.992 285.034 320.523 283.907 310.64 288.503C289.955 298.123 282.838 311.927 287.525 334.309C288.096 337.037 290.045 339.928 288.706 342.534C282.957 353.717 274.648 363.079 267.14 374.309C254.897 360.523 249.163 345.489 247.903 329.392C243.758 276.433 292.441 236.389 343.001 252.723C360.299 258.312 374.139 258.561 389.732 248.029ZM577.254 864.185C590.915 850.329 604.429 836.325 618.31 822.694C623.468 817.629 623.006 814.035 617.614 809.705C611.47 804.77 605.396 799.646 599.955 793.968C594.164 787.925 589.524 788.064 583.705 793.973C569.459 808.438 554.879 822.576 540.328 836.737C534.82 842.098 528.594 846.103 520.83 847.966C504.45 851.898 492.385 844.647 481.516 833.831C470.126 822.498 458.932 810.968 447.489 799.691C437.144 789.497 432.07 789.464 421.702 798.691C417.282 802.625 412.765 806.482 408.025 810.017C402.531 814.113 401.834 817.734 407.066 822.926C422.678 838.419 437.759 854.446 453.372 869.937C471.206 887.631 492.485 897.501 518.053 895.814C541.959 894.236 560.537 882.075 577.254 864.185ZM165.328 440.406C162.095 443.555 158.798 446.643 155.636 449.863C123.224 482.884 119.667 532.3 148.962 566.55C165.041 585.349 183.851 601.808 201.359 619.393C205.369 623.421 208.421 622.715 211.671 618.41C217.275 610.984 222.81 603.457 229.006 596.54C234.614 590.279 233.707 585.449 227.995 580.013C214.512 567.183 201.665 553.663 187.855 541.205C171.915 526.825 168.738 499.987 186.812 483.5C198.888 472.485 210.277 460.709 221.847 449.147C230.129 440.87 231.038 432.155 224.642 422.579C221.202 417.427 217.531 412.404 213.654 407.572C206.719 398.928 206.602 398.986 199.021 406.578C188.058 417.557 177.127 428.568 165.328 440.406ZM796.986 426.686C789.728 435.38 789.526 435.814 797.712 443.994C810.681 456.955 823.976 469.589 837.112 482.383C854.471 499.289 854.663 522.979 837.525 540.184C824.977 552.781 812.384 565.332 799.719 577.811C793.841 583.603 792.93 590.793 796.846 597.097C802.745 606.594 810.437 614.91 818.877 622.611C820.637 621.481 821.976 620.919 822.926 619.968C839.666 603.199 857.107 587.053 872.903 569.434C904.17 534.558 902.132 484.061 871.519 452.702C855.754 436.553 839.513 420.871 823.609 404.857C819.561 400.78 816.495 401.41 813.27 405.701C808.186 412.464 802.944 419.11 796.986 426.686ZM538.638 183.145C551.423 195.472 564.373 207.634 576.919 220.199C582.796 226.085 588.243 226.707 594.652 221.439C599.876 217.144 605.234 212.998 610.695 209.008C619.597 202.503 619.863 201.482 612.138 193.688C598.248 179.674 584.374 165.637 570.193 151.919C539.2 121.938 494.032 119.808 461.049 147.414C440.491 164.621 422.575 184.639 404.371 204.298C400.593 208.379 401.657 211.268 405.365 214.029C411.014 218.237 416.772 222.302 422.567 226.308C434.005 234.216 434.46 234.216 444.555 224.323C458.049 211.099 471.257 197.578 484.9 184.512C502.048 168.09 519.126 167.549 538.638 183.145ZM661.798 763.967C660.566 763.169 659.843 762.728 659.152 762.241C647.437 753.994 647.442 753.149 659.215 745.179C660.382 744.389 661.653 743.709 662.683 742.767C671.653 734.557 680.041 731.363 693.226 736.755C711.976 744.424 735.733 726.722 737.227 706.538C737.558 702.062 738.293 697.157 736.92 693.101C733.215 682.164 737.66 674.191 744.396 666.396C747.511 662.791 749.912 658.576 752.726 654.702C756.303 649.777 759.699 649.735 763.127 655.021C793.069 701.196 772.905 763.022 715.68 775.055C696.241 779.143 678.912 773.814 661.798 763.967Z" fill="#212225"/>
</svg>
